<svg width="1180" height="523" viewBox="0 0 1180 523" fill="none" xmlns="http://www.w3.org/2000/svg">
<path d="M1139.91 29.7239C1135.06 19.2289 1139.78 6.76622 1150.28 1.91229C1160.77 -2.94163 1173.23 1.78106 1178.09 12.276C1182.94 22.771 1178.22 35.2338 1167.72 40.0877C1157.23 44.9416 1144.77 40.2189 1139.91 29.7239ZM1145.68 27.1002C1149.1 34.4466 1157.75 37.7263 1165.23 34.3154C1172.58 30.9046 1175.86 22.2463 1172.45 14.7686C1169.04 7.29095 1160.38 4.14246 1152.9 7.55333C1145.55 10.9642 1142.27 19.7537 1145.68 27.1002Z" fill="url(#paint0_linear)"/>
<path d="M784.817 519.843L784.822 509.546C784.878 509.152 785.197 508.797 785.61 508.723L795.931 508.734C796.325 508.791 796.645 508.435 796.72 507.911L796.741 502.163C796.798 501.77 796.441 501.451 795.916 501.376L785.595 501.364C785.2 501.308 784.844 500.989 784.769 500.577L784.774 490.279C784.83 489.886 784.474 489.568 783.948 489.492L778.187 489.467C777.793 489.41 777.474 489.766 777.399 490.29L777.394 500.588C777.338 500.981 777.019 501.336 776.606 501.411L766.284 501.399C765.89 501.343 765.571 501.698 765.496 502.222L765.474 507.97C765.418 508.363 765.774 508.682 766.3 508.757L776.621 508.769C777.015 508.825 777.372 509.144 777.446 509.556L777.442 519.854C777.385 520.247 777.742 520.566 778.267 520.641L784.028 520.666C784.441 520.592 784.761 520.236 784.817 519.843Z" fill="#FDD08D"/>
<path d="M0.999582 221.57C-1.53764 216.072 0.931005 209.544 6.41689 207.002C11.9028 204.459 18.4173 206.933 20.9545 212.43C23.4917 217.928 21.0231 224.456 15.5372 226.998C10.0513 229.541 3.5368 227.067 0.999582 221.57ZM4.01681 220.195C5.79973 224.043 10.3256 225.761 14.2343 223.975C18.0744 222.188 19.7887 217.653 18.0058 213.736C16.2229 209.819 11.6971 208.17 7.78836 209.957C3.94824 211.743 2.2339 216.347 4.01681 220.195Z" fill="url(#paint1_linear)"/>
<defs>
<linearGradient id="paint0_linear" x1="1150.57" y1="1.81889" x2="1167.55" y2="40.2278" gradientUnits="userSpaceOnUse">
<stop stop-color="#BFF0DD"/>
<stop offset="1" stop-color="#57D2A3"/>
</linearGradient>
<linearGradient id="paint1_linear" x1="6.56802" y1="206.953" x2="15.4774" y2="227.058" gradientUnits="userSpaceOnUse">
<stop stop-color="#BFF0DD"/>
<stop offset="1" stop-color="#57D2A3"/>
</linearGradient>
</defs>
</svg>
