<svg width="857" height="684" viewBox="0 0 857 684" fill="none" xmlns="http://www.w3.org/2000/svg">
<path d="M0.908711 439.154C-1.39785 434.157 0.846368 428.222 5.83353 425.911C10.8207 423.599 16.743 425.848 19.0495 430.846C21.3561 435.843 19.1119 441.778 14.1247 444.089C9.13753 446.401 3.21528 444.152 0.908711 439.154ZM3.65165 437.905C5.27248 441.403 9.3869 442.965 12.9403 441.341C16.4313 439.716 17.9898 435.593 16.3689 432.033C14.7481 428.472 10.6337 426.973 7.08033 428.597C3.58931 430.221 2.03082 434.407 3.65165 437.905Z" fill="url(#paint0_linear)"/>
<path d="M837.909 678.154C835.602 673.157 837.846 667.222 842.834 664.911C847.821 662.599 853.743 664.848 856.05 669.846C858.356 674.843 856.112 680.778 851.125 683.089C846.138 685.401 840.215 683.152 837.909 678.154ZM840.652 676.905C842.272 680.403 846.387 681.965 849.94 680.341C853.431 678.716 854.99 674.593 853.369 671.033C851.748 667.472 847.634 665.973 844.08 667.597C840.589 669.221 839.031 673.407 840.652 676.905Z" fill="url(#paint1_linear)"/>
<path d="M514.698 20.5325L514.623 14.0237C514.655 13.7748 514.855 13.5478 515.115 13.4976L521.639 13.4266C521.888 13.4594 522.087 13.2323 522.131 12.9004L522.101 9.26722C522.133 9.01832 521.906 8.81959 521.573 8.77587L515.049 8.84688C514.8 8.81408 514.572 8.61536 514.522 8.35553L514.446 1.84671C514.479 1.59781 514.251 1.39908 513.919 1.35536L510.277 1.38317C510.028 1.35038 509.829 1.57742 509.785 1.9093L509.86 8.41811C509.828 8.66701 509.629 8.89406 509.368 8.94423L502.844 9.01526C502.595 8.98247 502.396 9.20951 502.352 9.54138L502.382 13.1746C502.35 13.4235 502.577 13.6222 502.91 13.666L509.434 13.5949C509.683 13.6277 509.911 13.8265 509.961 14.0863L510.037 20.5951C510.004 20.844 510.232 21.0427 510.564 21.0865L514.206 21.0587C514.466 21.0085 514.665 20.7814 514.698 20.5325Z" fill="#FDD08D"/>
<defs>
<linearGradient id="paint0_linear" x1="5.97093" y1="425.866" x2="14.0704" y2="444.144" gradientUnits="userSpaceOnUse">
<stop stop-color="#BFF0DD"/>
<stop offset="1" stop-color="#57D2A3"/>
</linearGradient>
<linearGradient id="paint1_linear" x1="842.971" y1="664.866" x2="851.07" y2="683.144" gradientUnits="userSpaceOnUse">
<stop stop-color="#BFF0DD"/>
<stop offset="1" stop-color="#57D2A3"/>
</linearGradient>
</defs>
</svg>
